<svg id="Icons" enable-background="new 0 0 512 512" height="512" viewBox="0 0 512 512" width="512" xmlns="http://www.w3.org/2000/svg" xmlns:xlink="http://www.w3.org/1999/xlink"><linearGradient id="lg1"><stop offset="0" stop-color="#22b7eb"/><stop offset="1" stop-color="#1e74bb"/></linearGradient><linearGradient id="SVGID_1_" gradientUnits="userSpaceOnUse" x1="256" x2="256" xlink:href="#lg1" y1="512" y2="0"/><linearGradient id="SVGID_2_" gradientUnits="userSpaceOnUse" x1="256" x2="256" xlink:href="#lg1" y1="512" y2="302.191"/><linearGradient id="SVGID_3_" gradientTransform="matrix(0 1 -1 0 1092 1760)" gradientUnits="userSpaceOnUse" x1="-1379.952" x2="-1668.048" y1="836" y2="836"><stop offset="0" stop-color="#fff"/><stop offset=".2013" stop-color="#f3f9f9"/><stop offset=".6958" stop-color="#dbecee"/><stop offset="1" stop-color="#d2e7ea"/></linearGradient><g><circle cx="256" cy="256" fill="url(#SVGID_1_)" r="256"/><path d="m166.71 302.19 11.947 197.905c24.404 7.726 50.384 11.905 77.343 11.905s52.94-4.179 77.343-11.904l11.947-197.906-89.29 40.403z" fill="url(#SVGID_2_)"/><path d="m269.144 375.122 69.585-60.675c8.325-7.259 9.189-19.893 1.93-28.218s-19.893-9.189-28.218-1.93l-36.441 31.775v-204.122c0-11.046-8.954-20-20-20s-20 8.954-20 20v204.122l-36.441-31.775c-8.325-7.259-20.959-6.395-28.218 1.93-3.305 3.79-4.926 8.473-4.926 13.136 0 5.579 2.321 11.128 6.856 15.083l69.585 60.675c7.532 6.567 18.756 6.567 26.288-.001z" fill="url(#SVGID_3_)"/></g></svg>