<svg id="Capa_1" enable-background="new 0 0 512 512" height="512" viewBox="0 0 512 512" width="512" xmlns="http://www.w3.org/2000/svg" xmlns:xlink="http://www.w3.org/1999/xlink"><linearGradient id="SVGID_1_" gradientUnits="userSpaceOnUse" x1="74.981" x2="437.019" y1="437.019" y2="74.981"><stop offset="0" stop-color="#ff726d"/><stop offset="1" stop-color="#ffde00"/></linearGradient><radialGradient id="SVGID_2_" cx="256" cy="252.958" gradientTransform="matrix(.707 -.707 .218 .218 19.963 378.96)" gradientUnits="userSpaceOnUse" r="408.489"><stop offset="0" stop-color="#ff726d"/><stop offset=".5743" stop-color="#ff9946" stop-opacity=".398"/><stop offset=".9537" stop-color="#ffae31" stop-opacity="0"/></radialGradient><radialGradient id="SVGID_3_" cx="254.986" cy="257.014" gradientUnits="userSpaceOnUse" r="256.002"><stop offset="0" stop-color="#ff726d"/><stop offset=".1839" stop-color="#ff8758" stop-opacity=".791"/><stop offset=".4257" stop-color="#ff9d42" stop-opacity=".517"/><stop offset=".661" stop-color="#ffaa35" stop-opacity=".249"/><stop offset=".8804" stop-color="#ffae31" stop-opacity="0"/></radialGradient><linearGradient id="SVGID_4_" gradientTransform="matrix(-.707 -.707 .707 -.707 256.001 618.037)" gradientUnits="userSpaceOnUse" x1="256" x2="256" y1="535.208" y2="322.392"><stop offset="0" stop-color="#ff726d"/><stop offset=".0047" stop-color="#ff726c"/><stop offset=".3252" stop-color="#fe8d3e"/><stop offset=".6094" stop-color="#fda01c"/><stop offset=".844" stop-color="#fcac07"/><stop offset="1" stop-color="#fcb000"/></linearGradient><linearGradient id="lg1"><stop offset="0" stop-color="#fee5be"/><stop offset=".4318" stop-color="#feefd8"/><stop offset="1" stop-color="#fff"/></linearGradient><linearGradient id="SVGID_6_" gradientTransform="matrix(-.707 -.707 .707 -.707 256.001 618.037)" gradientUnits="userSpaceOnUse" x1="256" x2="256" xlink:href="#lg1" y1="379.145" y2="257.307"/><linearGradient id="SVGID_7_" gradientTransform="matrix(-.707 -.707 .707 -.707 256.001 618.037)" gradientUnits="userSpaceOnUse" x1="256" x2="256" y1="122.387" y2="-91.67"><stop offset="0" stop-color="#fcb000"/><stop offset=".1207" stop-color="#fcb718"/><stop offset=".3759" stop-color="#fdca55"/><stop offset=".741" stop-color="#fee8b6"/><stop offset="1" stop-color="#fff"/></linearGradient><linearGradient id="SVGID_8_" gradientTransform="matrix(-.707 -.707 .707 -.707 256.001 618.037)" gradientUnits="userSpaceOnUse" x1="270.936" x2="270.936" y1="157.281" y2="-34.58"><stop offset="0" stop-color="#fcb000"/><stop offset=".2765" stop-color="#fdca55"/><stop offset=".5371" stop-color="#fee19e"/><stop offset=".7515" stop-color="#fef1d2"/><stop offset=".9119" stop-color="#fffbf3"/><stop offset="1" stop-color="#fff"/></linearGradient><linearGradient id="SVGID_9_" gradientTransform="matrix(-.707 -.707 .707 -.707 256.001 618.037)" gradientUnits="userSpaceOnUse" x1="256" x2="256" xlink:href="#lg1" y1="267.51" y2="-76.143"/><linearGradient id="SVGID_10_" gradientTransform="matrix(-.707 -.707 .707 -.707 256.001 618.037)" gradientUnits="userSpaceOnUse" x1="292.548" x2="292.548" y1="282.3" y2="87.472"><stop offset="0" stop-color="#fee5be" stop-opacity=".7"/><stop offset=".2618" stop-color="#fee6c2" stop-opacity=".779"/><stop offset=".5019" stop-color="#feebcd" stop-opacity=".851"/><stop offset=".7336" stop-color="#fff2df" stop-opacity=".92"/><stop offset=".9587" stop-color="#fffdf9" stop-opacity=".988"/><stop offset="1" stop-color="#fff"/></linearGradient><linearGradient id="SVGID_11_" gradientTransform="matrix(-.707 -.707 .707 -.707 256.001 618.037)" gradientUnits="userSpaceOnUse" x1="256" x2="256" y1="595.43" y2="-100.031"><stop offset="0" stop-color="#fca200"/><stop offset=".127" stop-color="#fcab1a"/><stop offset=".3985" stop-color="#fdc35c"/><stop offset=".7896" stop-color="#feeac4"/><stop offset="1" stop-color="#fff"/></linearGradient><linearGradient id="SVGID_12_" gradientTransform="matrix(-.707 -.707 .707 -.707 256.001 618.037)" gradientUnits="userSpaceOnUse" x1="256" x2="256" y1="386.828" y2="-180.143"><stop offset="0" stop-color="#ff726d"/><stop offset="1" stop-color="#fcb000"/></linearGradient><linearGradient id="SVGID_13_" gradientTransform="matrix(-.707 -.707 .707 -.707 256.001 618.037)" gradientUnits="userSpaceOnUse" x1="224.886" x2="224.886" y1="487.839" y2="-37.263"><stop offset="0" stop-color="#ff726d" stop-opacity=".8"/><stop offset=".2415" stop-color="#fe854b" stop-opacity=".607"/><stop offset=".5759" stop-color="#fd9c22" stop-opacity=".339"/><stop offset=".8403" stop-color="#fcab09" stop-opacity=".128"/><stop offset="1" stop-color="#fcb000" stop-opacity="0"/></linearGradient><g><circle cx="256" cy="256" fill="url(#SVGID_1_)" r="256"/><circle cx="256" cy="256" fill="url(#SVGID_2_)" r="256"/><circle cx="256" cy="256" fill="url(#SVGID_3_)" r="256"/><path d="m326.259 98.257c14.655-14.848 26.371-26.76 33.519-34.039 4.926-5.018 12.798-5.634 18.846-1.433 27.378 19.074 51.514 43.212 70.589 70.589 4.202 6.047 3.577 13.927-1.44 18.853-11.248 11.049-22.602 22.23-34.032 33.512-21.779-7.394-43.535-14.829-65.247-22.236-7.407-21.711-14.842-43.467-22.235-65.246z" fill="url(#SVGID_4_)"/><path d="m326.259 98.257c14.655-14.848 26.371-26.76 33.519-34.039 4.926-5.018 12.798-5.634 18.846-1.433 27.378 19.074 51.514 43.212 70.589 70.589 4.202 6.047 3.577 13.927-1.44 18.853-11.248 11.049-22.602 22.23-34.032 33.512-21.779-7.394-43.535-14.829-65.247-22.236-7.407-21.711-14.842-43.467-22.235-65.246z" fill="url(#SVGID_4_)"/><path d="m304.984 119.778c7.575-7.652 14.714-14.873 21.275-21.521 28.896 29.264 58.218 58.587 87.483 87.483-7.146 7.054-14.323 14.148-21.521 21.275-25.368-3.738-50.725-7.477-76.066-11.171-3.694-25.341-7.433-50.698-11.171-76.066z" fill="url(#SVGID_6_)"/><path d="m106.486 363.269c17.478-3.308 35.001-6.756 52.563-10.319-3.563 17.562-7.01 35.085-10.319 52.563-15.067 4.347-30.072 8.563-45.007 12.625-5.686 1.545-11.406-4.176-9.861-9.861 4.061-14.936 8.277-29.941 12.624-45.008z" fill="url(#SVGID_7_)"/><path d="m96.946 411.355c11.267-17.421 22.845-35.082 34.65-52.926-8.38 1.644-16.75 3.258-25.11 4.84-4.347 15.067-8.563 30.072-12.625 45.007-.775 2.845.272 5.695 2.22 7.642-.73-.731-.558-2.363.865-4.563z" fill="url(#SVGID_8_)"/><path d="m106.486 363.269c6.174-21.391 12.611-42.908 19.247-64.531 25.348 3.89 50.677 7.755 75.979 11.549 3.794 25.302 7.659 50.63 11.549 75.979-21.622 6.635-43.14 13.073-64.531 19.246-14.01-14.134-28.109-28.233-42.244-42.243z" fill="url(#SVGID_9_)"/><path d="m119.725 376.428c10.952-16.663 22.129-33.506 33.463-50.48-9.147-9.102-18.304-18.177-27.456-27.21-6.635 21.622-13.073 43.139-19.247 64.531 4.418 4.378 8.832 8.765 13.24 13.159z" fill="url(#SVGID_10_)"/><path d="m125.733 298.738c59.079-58.289 120.262-119.376 179.252-178.96 9.017 9.107 18.072 18.223 27.149 27.334-1.693 12.634-3.418 25.274-5.168 37.921 12.646-1.75 25.287-3.474 37.921-5.168 9.111 9.077 18.228 18.132 27.335 27.149-59.585 58.989-120.671 120.173-178.961 179.251-9.033-9.152-18.108-18.309-27.21-27.456 1.601-12.587 3.245-25.183 4.926-37.788-12.605 1.681-25.201 3.325-37.788 4.926-9.148-9.101-18.304-18.176-27.456-27.209z" fill="url(#SVGID_11_)"/><path d="m153.189 325.948c58.761-58.465 119.842-119.509 178.945-178.836 10.893 10.934 21.819 21.86 32.753 32.753-59.327 59.104-120.372 120.185-178.836 178.946-10.923-10.977-21.886-21.939-32.862-32.863z" fill="url(#SVGID_12_)"/><path d="m213.261 386.266c76.593-77.63 158.014-158.893 234.513-234.039 5.017-4.927 5.641-12.805 1.44-18.853-9.533-13.692-20.341-26.566-32.182-38.407.926 27.648-8.178 54.156-25.762 75.376-58.663 70.829-120.076 144.519-178.009 215.923z" fill="url(#SVGID_13_)"/></g></svg>